<svg xmlns="http://www.w3.org/2000/svg" xmlns:xlink="http://www.w3.org/1999/xlink" width="800" height="800" version="1.1" viewBox="0 0 800 800" style="overflow:hidden;display:block"><path fill="hsl(226, 100%, 75%)" d="M 100.88958100533463 82.46976240214401 Q 100.88958100533463 82.46976240214401 101.4487562337334 88.19662219450008 102.00793146213218 93.92348198685615 103.16423018849187 112.52547022367938 104.32052891485155 131.12745846050262 104.68907539372475 147.54841508404624 105.05762187259793 163.96937170758986 105.20648222580917 182.00988795898843 105.35534257902039 200.050404210387 105.41189125477457 216.91558274719597 105.46843993052876 233.78076128400494 105.49966466171605 251.24731602747252 105.53088939290336 268.7138707709401 105.55205831624718 287.05446227410437 105.57322723959102 305.3950537772687 105.1018701521613 321.8807638311791 104.63051306473157 338.3664738850895 104.20552230297085 356.49857966494 103.78053154121011 374.6306854447905 102.95765396970046 391.4115742065733 102.13477639819081 408.192462968356 101.25306072049915 424.43575694401727 100.37134504280749 440.6790509196785 99.97258506382923 459.6767114765736 99.57382508485097 478.6743720334686 99.51729078279298 495.1055403694361 99.460756480735 511.5367087054036 99.45352045461112 530.389977972793 99.44628442848726 549.2432472401823 99.8183381700101 566.0589921083971 100.19039191153291 582.8747369766119 100.33908989246558 600.7481134401248 100.48778787339825 618.6214899036379 100.51280136176173 636.2095586895214 100.53781485012522 653.797627475405 100.54698322095851 670.9827323038319 100.5561515917918 688.1678371322587 100.56390921979599 705.7851781021795 100.57166684780019 723.4025190721005 95.13810244163618 725.8048924524651 89.70453803547217 728.2072658328295 89.6996113646745 728.2081190120905 89.69468469387684 728.2089721913516 89.68975802307918 728.2098253706126 89.6848313522815 728.2106785498736 83.30834780168068 710.3112001334955 76.93186425107986 692.4117217171175 76.9378890329373 675.7506797505253 76.94391381479477 659.0896377839329 76.93942406113896 641.1962429760099 76.93493430748316 623.3028481680868 76.84465531296121 606.1392281016804 76.75437631843924 588.9756080352739 76.35650383290357 572.1383710917474 75.9586313473679 555.301134148221 75.97779141653601 536.7081718773953 75.99695148570412 518.1152096065697 76.0506806092531 501.67842395942614 76.1044097328021 485.24163831228253 76.32756486641638 468.7746586382118 76.55072000003067 452.307678964141 77.58986250348931 433.1968781394489 78.62900500694796 414.0860773147568 79.5285878087908 397.651797719839 80.42817061063363 381.2175181249213 80.77570461156583 363.112921787489 81.12323861249801 345.0083254500566 81.75558239932212 325.2020371036282 82.38792618614623 305.3957487571997 82.40676155921486 287.05645102463416 82.42559693228347 268.71715329206853 82.446269870289 251.25658936982106 82.46694280829455 233.79602544757358 82.47577863186241 216.9610529268775 82.48461445543028 200.12608040618142 82.41772794699074 182.1904835397459 82.35084143855121 164.2548866733104 82.07012244104837 148.12204122426274 81.78940344354554 131.98919577521508 80.77465331095814 114.01576287333597 79.75990317837076 96.04232997145685 79.22800013681103 90.31287985399236 78.6960970952513 84.58342973652786 78.73087051402283 83.24022040518986 78.76564393279435 81.89701107385186 79.12086790073565 80.60115752076548 79.47609186867696 79.30530396767911 80.13112075208116 78.13212126223516 80.78614963548537 76.95893855679121 81.70291312487264 75.97661213295186 82.6196766142599 74.99428570911249 83.74489237255308 74.25990842478566 84.87010813084626 73.52553114045884 86.13837856530532 73.08178503791419 87.40664899976439 72.63803893536954 88.74426217314914 72.51071455893629 90.08187534653389 72.38339018250304 91.41108911835973 72.57988763092179 92.74030289018556 72.77638507934054 93.98386329358112 73.2852839116768 95.22742369697667 73.79418274401307 96.31305494286818 74.58590573622097 97.39868618875967 75.37762872842886 98.26329133812771 76.4061609030023 99.12789648749578 77.43469307757576 99.72122464843582 78.64025609620317 100.31455280937587 79.84581911483059 100.60211972129667 81.1583455982262 100.88968663321747 82.47087208162182 100.88963381927604 82.47031724188292 Z"/><path fill="hsl(359, 100%, 70%)" d="M 731.2944545711375 76.19690704345703 Q 731.2944545711375 76.19690704345703 731.3084309442382 81.65229243087768 731.322407317339 87.10767781829834 731.3718860335015 105.7101869246982 731.421364749664 124.31269603109808 731.46118291435 141.56093719009687 731.501001079036 158.80917834909562 731.5470626553147 176.77696221129617 731.5931242315934 194.74474607349669 731.630103684741 213.5093439093602 731.6670831378887 232.2739417452237 731.5498047826858 251.40343405063328 731.4325264274829 270.5329263560428 730.231023518362 287.56840791432774 729.0295206092411 304.60388947261265 728.22850583021 322.31746939217334 727.427491051179 340.031049311734 726.6807552266628 359.3117143286498 725.9340194021466 378.59237934556563 725.4816812589412 397.5770178528404 725.0293431157357 416.5616563601152 723.7834041469214 435.0206516111412 722.5374651781071 453.4796468621672 721.3443195212477 472.40397421606417 720.1511738643883 491.3283015699611 718.7212307132413 509.257505891857 717.2912875620945 527.1867102137529 716.8287296316182 543.5006268463676 716.3661717011419 559.8145434789824 716.2939163974967 578.6508830628178 716.2216610938515 597.4872226466532 716.2214699300594 615.526862773541 716.2212787662672 633.5665029004288 716.9536977458138 650.6512276578991 717.6861167253603 667.7359524153694 717.6361428794576 684.030961396898 717.5861690335548 700.3259703784265 712.0108264844996 715.4076320194561 706.4354839354443 730.4892936604856 706.4304846503601 730.4893782101583 706.4254853652759 730.4894627598309 706.4204860801917 730.4895473095035 706.4154867951075 730.4896318591761 700.1306078134901 714.8664431931072 693.8457288318726 699.2432545270383 693.8841870668045 682.5887859549936 693.9226453017363 665.9343173829488 693.2934272895368 649.7477164847666 692.6642092773372 633.5611155865843 692.6843892459589 615.5080785025353 692.7045692145805 597.4550414184864 692.8007549544992 578.4844083882908 692.8969406944179 559.5137753580952 693.4144235411277 542.486014801885 693.9319063878373 525.4582542456748 695.4102082017732 507.26883805479883 696.888510015709 489.0794218639229 698.0619851113577 470.58328870668953 699.2354602070063 452.08715554945616 700.5190669342635 433.35681576623404 701.8026736615205 414.6264759830119 702.2399849924552 396.38041535877767 702.6772963233899 378.1343547345434 703.486577561292 358.12125099610546 704.2958587991941 338.1081472576675 705.0931471168237 320.6790707393323 705.8904354344535 303.2499942209971 707.1026192068545 286.4804887908394 708.3148029792554 269.71098336068167 708.4702832605271 250.9924625529527 708.6257635417988 232.2739417452237 708.6627429949465 213.5093439093602 708.6997224480941 194.74474607349669 708.7457840243728 176.77696221129617 708.7918456006515 158.80917834909562 708.8316637653375 141.56093719009687 708.8714819300235 124.31269603109808 708.920960646186 105.7101869246982 708.9704393623485 87.10767781829834 708.9844157354493 81.65229243087768 708.99839210855 76.19690704345703 709.1603731332877 74.86291616257449 709.3223541580254 73.52892528169195 709.7988828874701 72.27246601348361 710.2754116169148 71.01600674527526 711.0387921789215 69.91010456144386 711.8021727409283 68.80420237761244 712.808037421366 67.91313236504286 713.8139021018037 67.02206235247326 715.003789998185 66.39761354216276 716.1936778945662 65.77316473185226 717.4984326664468 65.45163011799573 718.8031874383273 65.13009550413919 720.1469766770617 65.13016269360119 721.4907659157961 65.13022988306318 722.7954885276915 65.45189497078901 724.1002111395869 65.77356005851485 725.2900365851378 66.39812785449254 726.4798620306888 67.02269565047023 727.485637599096 67.91386624505235 728.4914131675033 68.80503683963447 729.254683135475 69.91101535599243 730.0179531034466 71.0169938723504 730.4943561845821 72.27350078714932 730.9707592657176 73.53000770194824 731.1326068905574 74.86401477426327 731.2944545153973 76.1980218465783 731.2944545432674 76.19746444501766 Z"/><path fill="hsl(50, 100%, 70%)" d="M 77.26656983686767 69.2953181251008 Q 77.26656983686767 69.2953181251008 81.76594873424688 68.87164150687158 86.26532763162608 68.44796488864237 102.54013544028788 69.3261559679442 118.81494324894967 70.20434704724602 134.47620535670177 74.97054560024041 150.13746746445383 79.73674415323481 165.3744940914569 87.22953537583297 180.61152071845999 94.72232659843112 194.83190357463315 104.2117462627657 209.05228643080628 113.70116592710028 223.1093541651364 126.25657370971402 237.16642189946654 138.81198149232776 248.1212551599411 151.0691459469416 259.07608842041566 163.32631040155545 270.77559031406537 175.6211401337767 282.4750922077151 187.91596986599797 293.39358417017326 201.4500324961112 304.31207613263143 214.98409512622442 315.63815991071897 230.2083401015338 326.9642436888065 245.43258507684317 336.31706671068946 260.4817118882264 345.66988973257247 275.5308386996096 355.67735915113803 288.585931771357 365.68482856970365 301.64102484310445 376.6291243096881 313.6887391445661 387.5734200496726 325.7364534460278 393.166519158159 336.1245381349463 398.7596182666454 346.5126228238648 398.7581416593997 346.51739981361163 398.75666505215395 346.52217680335855 398.7551884449082 346.52695379310546 398.7537118376625 346.5317307828523 384.1073936741101 344.00289625739697 369.4610755105577 341.4740617319417 358.5640561270005 329.1217770091848 347.6670367434433 316.769492286428 336.6521582165451 302.2704140963258 325.63727968964685 287.7713359062236 316.56091824904286 273.11586275342313 307.4845568084388 258.4603896006227 296.7198102605983 243.968103780226 285.9550637127578 229.47581795982927 273.86563753662733 214.71795553350006 261.77621136049686 199.96009310717085 249.7266045296039 186.77138874963725 237.67699769871092 173.58268439210366 224.7360068598391 160.29479350098944 211.79501602096732 147.00690260987523 199.5737131949927 136.50195768847703 187.3524103690181 125.99701276707884 171.28252436108573 116.44044280934045 155.2126383531534 106.88387285160208 138.35175754136424 100.32086540746616 121.49087672957506 93.75785796333022 104.88891108843373 92.22193851122088 88.28694544729238 90.68601905911153 83.78493756107173 91.08065014962256 79.28292967485108 91.47528124013357 77.94123624280417 91.4347840662902 76.59954281075727 91.39428689244686 75.30653093188967 91.03386829165834 74.01351905302207 90.6734496908698 72.84433863848544 90.01405720914812 71.67515822394881 89.35466472742644 70.69776209436975 88.4346222867907 69.7203659647907 87.51457984615496 68.9915604291431 86.3873603564829 68.2627548934955 85.26014086681086 67.82489816375397 83.99125837780443 67.38704143401243 82.722375888798 67.26558176388218 81.38557791033642 67.14412209375192 80.04877993187486 67.34611872496765 78.72176122527551 67.54811535618337 77.39474251867617 68.06182823504807 76.15462947351631 68.57554111391275 74.91451642835646 69.3711132237701 73.83338447308725 70.16668533362744 72.75225251781804 71.19787798607274 71.89293709247647 72.22907063851802 71.03362166713492 73.43595086814076 70.44606622461663 74.64283109776349 69.85851078209835 75.95525496891298 69.57686407232868 77.26767884006247 69.29521736255899 77.26712433846507 69.2952677438299 Z"/><path fill="hsl(50, 100%, 70%)" d="M 720.80467310404 79.66518924001491 Q 720.80467310404 79.66518924001491 713.8517284093361 81.44867014952604 706.8987837146323 83.23215105903715 689.7062703160054 87.72146019232298 672.5137569173786 92.2107693256088 654.952106866886 98.82354437410561 637.3904568163933 105.43631942260242 623.6395564581661 114.99488382357822 609.8886560999389 124.55344822455403 598.0536932976867 136.79224998032825 586.2187304954344 149.03105173610246 575.0958012695862 163.04114877767725 563.9728720437381 177.05124581925205 553.2686351569494 190.7178909665868 542.5643982701607 204.38453611392154 532.7110601372169 217.18497328759193 522.857722004273 229.98541046126232 513.4372079065688 243.27747566214413 504.01669380886466 256.5695408630259 492.97910493978304 269.31940368141943 481.9415160707015 282.0692664998129 469.04548370550367 295.178565295598 456.1494513403059 308.28786409138314 441.5992744532758 318.6847964356765 427.04909756624573 329.0817287799698 411.6010972553203 337.631891059302 396.1530969443949 346.18205333863415 386.1653372980235 344.42050212060053 376.177577651652 342.6589509025669 376.17623550612393 342.6541344053561 376.17489336059583 342.64931790814535 376.17355121506773 342.6445014109346 376.1722090695397 342.6396849137238 387.0096896690625 330.7744801670879 397.8471702685853 318.90927542045205 411.6195954484623 310.51748513649994 425.39202062833925 302.12569485254784 438.0801443207957 291.59185297873637 450.7682680132521 281.05801110492484 462.13143956748445 269.0699726424864 473.49461112171673 257.081934180048 484.56050931507286 242.52297525076767 495.62640750842905 227.96401632148738 505.6266781519281 214.48954976050436 515.6269487954272 201.01508319952137 526.5664590346382 187.36780393000777 537.5059692738494 173.72052466049414 548.2562170974568 159.4993190620354 559.0064649210642 145.2781134635767 569.7232947157547 132.79353625222032 580.4401245104451 120.30895904086395 592.6164002620369 109.73882484066665 604.7926760136287 99.16869064046935 619.1924936869331 90.64062808442347 633.5923113602374 82.11256552837757 649.9126576812253 76.37412784993327 666.2330040022131 70.63569017148896 683.8081251889564 66.11498134058868 701.3832463756997 61.59427250968842 708.3415327295799 59.83175202302035 715.29981908346 58.06923153635228 716.6319149450379 57.89676656808874 717.9640108066159 57.724301599825196 719.2986707877108 57.87564982272501 720.6333307688056 58.02699804562483 721.8929843686076 58.493363093862 723.1526379684095 58.95972814209917 724.2640740605134 59.71400485715809 725.3755101526173 60.468281572217 726.2741320191294 61.46663135597889 727.1727538856416 62.464981139740786 727.8063335814587 63.64937985586616 728.4399132772759 64.83377857199153 728.7716271207086 66.13538891145043 729.1033409641412 67.43699925090932 729.1139097310236 68.7801715596165 729.124478497906 70.12334386832369 728.8132879310103 71.43001290858841 728.5020973641145 72.73668194885313 727.8872338738099 73.93090405466162 727.2723703835054 75.12512616047012 726.3895698647377 76.1374930869225 725.50676934597 77.14986001337489 724.4073402063682 77.92153294713991 723.3079110667663 78.69320588090493 722.0557521795804 79.17933515481525 720.8035932923946 79.66546442872558 720.8041331982173 79.66532683437025 Z"/><path fill="hsl(0, 0%, 0%)" d="M 672.5609501258658 712.8524934651455 Q 672.5609501258658 712.8524934651455 668.3374403009431 714.3667308042736 664.1139304760203 715.8809681434018 646.4824030273644 720.1292306321857 628.8508755787084 724.3774931209696 610.6035399155012 726.4290770339503 592.356204252294 728.4806609469309 573.5529111340102 730.6020100778576 554.7496180157264 732.7233592087841 536.1114631505974 733.6232027930174 517.4733082854684 734.5230463772507 500.9047393342904 735.1387755740873 484.3361703831124 735.7545047709239 467.2712464278737 736.1986791371862 450.20632247263495 736.6428535034487 430.897017833086 736.7980475076255 411.58771319353707 736.9532415118023 393.0821542134066 736.9822888932447 374.57659523327624 737.0113362746872 355.20588707605134 737.0184067013057 335.8351789188265 737.0254771279242 318.54948755472594 737.0323586498605 301.2637961906253 737.0392401717967 284.6904841539896 736.8064369308775 268.11717211735385 736.5736336899581 251.16223796742733 735.6500265131403 234.20730381750082 734.7264193363226 216.12327129691727 733.3766082522707 198.0392387763337 732.0267971682189 180.6795435009753 729.7348476177912 163.31984822561694 727.4428980673634 146.70114969528336 724.1799222364439 130.0824511649498 720.9169464055242 123.14940340816251 713.3648183735322 116.21635565137524 705.8126903415401 116.21842270972915 705.808137620402 116.22048976808307 705.8035848992639 116.22255682643699 705.7990321781258 116.2246238847909 705.7944794569877 124.58466643710175 701.6822002163519 132.9447089894126 697.5699209757163 149.04925852811922 700.8203270676302 165.15380806682586 704.0707331595441 182.46444297783606 706.4023177617363 199.77507788884625 708.7339023639285 217.87390880825973 710.1025468071769 235.97273972767323 711.4711912504251 252.32689696910606 712.3719588702361 268.6810542105389 713.272726490047 284.971334648654 713.5129050329724 301.26161508676915 713.7530835758977 318.54531631291957 713.7549174776993 335.82901753907004 713.7567513795009 355.19288175929967 713.746943302129 374.55674597952935 713.7371352247571 393.03018435818433 713.709743355751 411.50362273683936 713.6823514867448 430.6717218607644 713.5539758006752 449.8398209846895 713.4256001146056 466.4529772983293 713.0164039677816 483.0661336119691 712.6072078209577 502.60213126613024 711.9681313543797 522.1381289202914 711.3290548878017 540.3691671322432 710.284176726012 558.600205344195 709.2392985642222 574.6919489575457 707.4914086933795 590.7836925708964 705.7435188225369 608.012703798762 703.9268359534644 625.2417150266276 702.1101530843921 640.9466185631454 698.4771703513545 656.6515220996633 694.8441876183169 660.8838479986175 693.357968658617 665.1161738975717 691.871749698917 666.4255545736291 691.5787481326223 667.7349352496867 691.2857465663276 669.0763873453757 691.3146247181999 670.4178394410648 691.3435028700721 671.713397697556 691.6925823405677 673.0089559540472 692.0416618110634 674.1833224646018 692.6906540849557 675.3576889751564 693.3396463588479 676.3426095030036 694.2508319746855 677.3275300308507 695.1620175905231 678.0657609486357 696.2824383975017 678.8039918664206 697.4028592044801 679.252627158516 698.6673962926552 679.7012624506115 699.9319333808304 679.8342274127618 701.2670917952235 679.9671923749122 702.6022502096164 679.7767590772698 703.9304304804505 679.5863257796276 705.2586107512847 679.0835622143991 706.5026189788148 678.5807986491707 707.746627206345 677.7949254583893 708.8341615739378 677.009052267608 709.9216959415304 675.9857444380461 710.7895489006435 674.9624366084842 711.6574018597565 673.7611688392758 712.2551337556305 672.5599010700673 712.8528656515044 672.5604255979665 712.852679558325 Z"/></svg>